<svg xmlns="http://www.w3.org/2000/svg" width="38" height="38" fill="none" viewBox="0 0 38 38">
  <path fill="#6D6D6D" d="M10.292 30.083c-.634 0-1.188-.237-1.663-.712-.475-.475-.712-1.03-.712-1.663V5.542c0-.634.237-1.188.712-1.663.475-.475 1.03-.712 1.663-.712h22.166c.634 0 1.188.237 1.663.712.475.475.712 1.03.712 1.663v22.166c0 .634-.237 1.188-.712 1.663-.475.475-1.03.712-1.663.712H10.292Zm0-2.375h22.166V12.667H20.583V5.542H10.292v22.166Zm-4.75 7.125c-.634 0-1.188-.237-1.663-.712-.475-.475-.712-1.03-.712-1.663V7.917h2.375v24.541h24.541v2.375H5.542Z"/>
</svg>
