<svg xmlns="http://www.w3.org/2000/svg" width="30" height="30" fill="none" viewBox="0 0 30 30">
  <path fill="#6D6D6D" d="M5.625 27.5c-.5 0-.938-.188-1.313-.563-.375-.375-.562-.812-.562-1.312V6.25c0-.5.188-.938.563-1.313.375-.375.812-.562 1.312-.562h2.031V2.5h2.032v1.875h10.624V2.5h2.032v1.875h2.031c.5 0 .938.188 1.313.563.375.375.562.812.562 1.312v19.375c0 .5-.188.938-.563 1.313-.375.375-.812.562-1.312.562H5.625Zm0-1.875h18.75V12.187H5.625v13.438Zm0-15.313h18.75V6.25H5.625v4.063ZM15 17.5a1.21 1.21 0 0 1-.89-.36 1.21 1.21 0 0 1-.36-.89c0-.354.12-.651.36-.89.239-.24.536-.36.89-.36s.651.12.89.36c.24.239.36.536.36.89s-.12.651-.36.89c-.239.24-.536.36-.89.36Zm-5 0a1.21 1.21 0 0 1-.89-.36 1.21 1.21 0 0 1-.36-.89c0-.354.12-.651.36-.89.239-.24.536-.36.89-.36s.651.12.89.36c.24.239.36.536.36.89s-.12.651-.36.89c-.239.24-.536.36-.89.36Zm10 0a1.21 1.21 0 0 1-.89-.36 1.21 1.21 0 0 1-.36-.89c0-.354.12-.651.36-.89.239-.24.536-.36.89-.36s.651.12.89.36c.24.239.36.536.36.89s-.12.651-.36.89c-.239.24-.536.36-.89.36Zm-5 5a1.21 1.21 0 0 1-.89-.36 1.21 1.21 0 0 1-.36-.89c0-.354.12-.651.36-.89.239-.24.536-.36.89-.36s.651.12.89.36c.24.239.36.536.36.89s-.12.651-.36.89c-.239.24-.536.36-.89.36Zm-5 0a1.21 1.21 0 0 1-.89-.36 1.21 1.21 0 0 1-.36-.89c0-.354.12-.651.36-.89.239-.24.536-.36.89-.36s.651.12.89.36c.24.239.36.536.36.89s-.12.651-.36.89c-.239.24-.536.36-.89.36Zm10 0a1.21 1.21 0 0 1-.89-.36 1.21 1.21 0 0 1-.36-.89c0-.354.12-.651.36-.89.239-.24.536-.36.89-.36s.651.12.89.36c.24.239.36.536.36.89s-.12.651-.36.89c-.239.24-.536.36-.89.36Z"/>
</svg>
